PathFileType	4	(X/Y/Z)	/Users/itak/Documents/Research/Walk-IL/dataset/trc/00287_00010.trc
DataRate	CameraRate	NumFrames	NumMarkers	Units	OrigDataRate	OrigDataStartFrame	OrigNumFrames
100.000000	100.000000	4	54	mm	100.000000	426	683
Frame#	Time	RPSI			LPSI			L3			STRN			T10			C7			CLAV			RBAK			LBAK			LSHO			LUPA			LAEL			LAOL			LWTS			LWPS			LFRA			LHPS			LHTS			RSHO			RUPA			RAEL			RAOL			RWTS			RWPS			RFRA			RHTS			RHPS			RBHD			LFHD			RFHD			LBHD			LHIP			RHIP			RASI			LASI			LKNE			LTHI			LANK			LTIP			LTOE			LMT1			LMT5			LHEE			RKNE			RTHI			RANK			RTIP			RTOE			RMT1			RMT5			RHEE			RIFD			LIFD			*53			
		X1	Y1	Z1	X2	Y2	Z2	X3	Y3	Z3	X4	Y4	Z4	X5	Y5	Z5	X6	Y6	Z6	X7	Y7	Z7	X8	Y8	Z8	X9	Y9	Z9	X10	Y10	Z10	X11	Y11	Z11	X12	Y12	Z12	X13	Y13	Z13	X14	Y14	Z14	X15	Y15	Z15	X16	Y16	Z16	X17	Y17	Z17	X18	Y18	Z18	X19	Y19	Z19	X20	Y20	Z20	X21	Y21	Z21	X22	Y22	Z22	X23	Y23	Z23	X24	Y24	Z24	X25	Y25	Z25	X26	Y26	Z26	X27	Y27	Z27	X28	Y28	Z28	X29	Y29	Z29	X30	Y30	Z30	X31	Y31	Z31	X32	Y32	Z32	X33	Y33	Z33	X34	Y34	Z34	X35	Y35	Z35	X36	Y36	Z36	X37	Y37	Z37	X38	Y38	Z38	X39	Y39	Z39	X40	Y40	Z40	X41	Y41	Z41	X42	Y42	Z42	X43	Y43	Z43	X44	Y44	Z44	X45	Y45	Z45	X46	Y46	Z46	X47	Y47	Z47	X48	Y48	Z48	X49	Y49	Z49	X50	Y50	Z50	X51	Y51	Z51	X52	Y52	Z52	X53	Y53	Z53	X54	Y54	Z54	

427	4.26	277.7440490722656	955.888916015625	-463.4287109375	383.43310546875	949.4666137695312	-603.9900512695312	333.9562072753906	1019.59765625	-516.6068115234375	546.1780395507812	1191.79052734375	-401.3714294433594	311.1601867675781	1134.584594726562	-516.5317993164062	361.3244934082031	1379.313354492188	-507.0617065429688	493.7454223632812	1291.5859375	-433.3306274414062	276.9809875488281	1244.137817382812	-465.4730224609375	388.0628356933594	1340.368896484375	-606.0924072265625	491.017578125	1343.639282226562	-617.03076171875	474.1174011230469	1237.70947265625	-707.947509765625	456.7410278320312	1043.206420898438	-753.1658935546875	383.599853515625	1027.413208007812	-707.5537109375	503.1514892578125	808.9881591796875	-734.5199584960938	480.5425415039062	812.9730224609375	-802.4408569335938	460.6043701171875	940.4461059570312	-779.72021484375	474.8670959472656	726.3736572265625	-816.574951171875	518.3472290039062	712.327392578125	-768.730712890625	346.4736633300781	1358.204467773438	-336.4137268066406	307.0545654296875	1300.475708007812	-281.6329345703125	252.9891510009766	1037.45703125	-249.5311737060547	270.3715209960938	1027.719116210938	-343.5042114257812	404.5601501464844	842.118896484375	-233.9888916015625	332.9795227050781	823.1609497070312	-191.8280639648438	277.1599426269531	974.083251953125	-225.3338317871094	447.369873046875	735.185302734375	-196.2636413574219	381.23486328125	719.9732666015625	-177.3697052001953	362.9029541015625	1541.784057617188	-453.8553771972656	568.3696899414062	1556.658081054688	-400.2494506835938	498.1570739746094	1553.118286132812	-339.1542358398438	474.509765625	1538.556640625	-548.9646606445312	498.003173828125	907.007080078125	-640.48779296875	289.9378662109375	896.1419067382812	-322.9670104980469	432.3279418945312	898.4364624023438	-305.4364624023438	574.8685913085938	914.7816162109375	-516.7271728515625	671.0805053710938	488.1672973632812	-474.1012268066406	630.9112548828125	609.8529663085938	-536.4913330078125	738.1312866210938	38.26820755004883	-456.8271179199219	712.0364990234375	260.5903625488281	-468.3162536621094	778.0010375976562	75.86540985107422	-253.8382568359375	715.5501708984375	42.82533264160156	-289.9928894042969	803.9116821289062	54.17541122436523	-355.36474609375	665.06103515625	24.5810718536377	-466.0071105957031	278.8540344238281	440.4027709960938	-459.1360168457031	320.2420959472656	677.8291625976562	-342.0035400390625	98.57036590576172	71.71792602539062	-646.9584350585938	259.9022521972656	324.8887939453125	-513.6749877929688	283.8296508789062	38.11208343505859	-709.8034057617188	227.0154724121094	48.63653945922852	-744.2138671875	199.7910308837891	37.7950553894043	-630.0067138671875	49.84641647338867	98.57597351074219	-694.4627075195312	448.9310913085938	664.5626220703125	-225.3677520751953	488.6709899902344	629.3447875976562	-774.3536987304688	nan	nan	nan	
428	4.27	288.3749084472656	956.19921875	-457.2147827148438	395.4013671875	951.3565063476562	-596.923095703125	345.4566040039062	1019.536804199219	-510.0992736816406	555.8151245117188	1192.703857421875	-393.7400207519531	322.5166625976562	1134.145141601562	-511.3772277832031	371.8145751953125	1379.162963867188	-503.2269592285156	503.6803894042969	1292.278564453125	-427.0533142089844	287.269775390625	1243.874389648438	-462.089111328125	399.9850769042969	1339.440185546875	-601.6142578125	503.0045471191406	1342.82275390625	-611.3114013671875	487.0572204589844	1236.3671875	-701.8932495117188	470.3563537597656	1042.00048828125	-747.0556640625	397.2769470214844	1025.7021484375	-701.547607421875	516.280029296875	807.4424438476562	-729.0849609375	493.5376586914062	811.923828125	-797.0567016601562	474.0813903808594	939.2217407226562	-773.95361328125	487.8817443847656	725.5390014648438	-811.6879272460938	531.7000732421875	711.2583618164062	-764.2003784179688	354.2543334960938	1359.132934570312	-332.6896362304688	313.7891845703125	1301.565185546875	-278.32470703125	259.8430786132812	1038.192260742188	-247.7726287841797	279.4481811523438	1028.713745117188	-341.258544921875	406.8926391601562	839.6764526367188	-229.6409149169922	333.7802124023438	822.0158081054688	-189.5688171386719	282.1316833496094	974.199951171875	-223.3328552246094	446.318359375	731.730224609375	-191.1485290527344	379.2850952148438	717.8734130859375	-174.3346862792969	371.8404235839844	1542.215454101562	-450.601318359375	576.2960815429688	1557.513671875	-392.5027465820312	504.8843994140625	1553.659790039062	-332.8849792480469	485.6387939453125	1539.348266601562	-543.1477661132812	510.5478820800781	909.61328125	-632.4542236328125	299.0100708007812	895.1795043945312	-317.1652526855469	441.3027954101562	897.8338623046875	-298.4409484863281	586.2327270507812	915.9345703125	-507.7960205078125	681.7091064453125	489.5723571777344	-464.5285034179688	642.9638061523438	612.2240600585938	-526.8527221679688	739.739990234375	37.66786193847656	-456.0772705078125	719.5343627929688	260.7629089355469	-461.9407043457031	779.9807739257812	68.33987426757812	-251.4075927734375	716.76806640625	38.4653434753418	-288.7694702148438	805.5360107421875	49.09170913696289	-353.7282104492188	666.3347778320312	26.07815933227539	-465.748046875	288.91064453125	439.7546081542969	-454.1856689453125	329.6899108886719	676.9641723632812	-336.8482666015625	101.1865768432617	75.90137481689453	-646.5431518554688	267.3855590820312	324.9268493652344	-508.8873596191406	284.248291015625	38.24223327636719	-709.28125	228.8212432861328	50.82022857666016	-743.4653930664062	200.7506713867188	37.91479873657227	-629.6478881835938	54.34855651855469	106.0792922973633	-693.7745361328125	447.1681213378906	661.15234375	-220.3757019042969	502.1885375976562	628.2684936523438	-770.438232421875	nan	nan	nan	
429	4.28	298.7992858886719	956.7459716796875	-450.8495178222656	407.1539916992188	953.54736328125	-589.6837768554688	356.720947265625	1019.849182128906	-503.4130859375	565.3419189453125	1193.9833984375	-385.7969055175781	333.7713317871094	1134.145629882812	-506.1268310546875	382.3888549804688	1379.355590820312	-499.3037719726562	513.5306396484375	1293.320190429688	-420.5533447265625	297.6432189941406	1244.0400390625	-458.595458984375	412.0872192382812	1338.8466796875	-596.9725952148438	515.1598510742188	1342.347900390625	-605.2782592773438	500.3114013671875	1235.373168945312	-695.5003051757812	484.2438659667969	1041.156127929688	-740.5093383789062	411.1639709472656	1024.404296875	-695.186279296875	529.5545043945312	806.2448120117188	-723.216064453125	506.632080078125	811.1870727539062	-791.2271728515625	487.7836608886719	938.3696899414062	-767.73974609375	500.9162902832031	725.0161743164062	-806.3096313476562	545.1000366210938	710.5101928710938	-759.180908203125	361.9942016601562	1360.533325195312	-328.9745483398438	320.4700927734375	1303.210815429688	-275.0001525878906	266.730224609375	1039.489501953125	-245.9377288818359	288.5600891113281	1030.2802734375	-338.8479614257812	408.8758850097656	837.642333984375	-225.3848876953125	334.2675170898438	821.4412231445312	-187.4686584472656	287.0802917480469	974.8953247070312	-221.2991943359375	444.6598510742188	728.66015625	-186.2459716796875	376.7738647460938	716.3198852539062	-171.5839538574219	380.7213134765625	1542.937133789062	-447.3558959960938	584.0736083984375	1558.69189453125	-384.6017761230469	511.5033569335938	1554.5234375	-326.537353515625	496.8141174316406	1540.441040039062	-537.203369140625	522.9043579101562	912.6336059570312	-624.2119750976562	307.8923645019531	894.3992919921875	-311.2911987304688	450.05126953125	897.5750732421875	-291.4728088378906	597.4153442382812	917.5613403320312	-498.6851501464844	692.1784057617188	491.0784606933594	-455.482666015625	655.0068969726562	614.9588623046875	-517.55126953125	741.1779174804688	37.10292816162109	-455.7841186523438	726.8426513671875	261.033203125	-456.2579345703125	782.5292358398438	62.05115127563477	-249.9763336181641	718.4718017578125	35.30127716064453	-288.1482543945312	807.4484252929688	44.89741134643555	-353.1784362792969	667.5150756835938	27.47249984741211	-465.638427734375	299.6755981445312	438.9890747070312	-448.3891906738281	339.4393310546875	676.2828979492188	-331.3700866699219	104.3326950073242	80.80171203613281	-646.219482421875	275.2223815917969	325.0712890625	-503.2774353027344	284.7207946777344	38.3671989440918	-708.661376953125	231.1802368164062	53.36175155639648	-742.50146484375	201.3839416503906	37.61948013305664	-629.4469604492188	59.95285415649414	114.4722137451172	-693.041748046875	444.6165466308594	658.1775512695312	-215.6883697509766	515.7057495117188	627.5035400390625	-765.974609375	nan	nan	nan	
430	4.29	308.9979553222656	957.5140380859375	-444.5297241210938	418.7564392089844	955.9222412109375	-582.3912963867188	367.7297058105469	1020.521667480469	-496.6925659179688	574.6990356445312	1195.59033203125	-377.5431213378906	344.8901062011719	1134.556396484375	-500.8442687988281	393.0347290039062	1379.86083984375	-495.28076171875	523.238037109375	1294.67041015625	-413.82373046875	308.0713500976562	1244.615600585938	-455.0024719238281	424.368408203125	1338.580078125	-592.1570434570312	527.4724731445312	1342.2109375	-598.892333984375	513.8981323242188	1234.756958007812	-688.7520751953125	498.4273376464844	1040.69921875	-733.5205688476562	425.2528686523438	1023.559753417969	-688.4921875	543.0034790039062	805.4134521484375	-716.8930053710938	519.888427734375	810.7789306640625	-784.9370727539062	501.7555847167969	937.9208374023438	-761.05810546875	514.0173950195312	724.8082275390625	-800.4267578125	558.5288696289062	710.0709838867188	-753.6129150390625	369.6867065429688	1362.356811523438	-325.2633666992188	327.0994262695312	1305.371459960938	-271.6516418457031	273.565673828125	1041.349609375	-243.9817199707031	297.5883483886719	1032.400634765625	-336.2465209960938	410.5586242675781	836.072509765625	-221.2157745361328	334.5087585449219	821.4804077148438	-185.4812316894531	291.9662475585938	976.1893920898438	-219.2009582519531	442.4552917480469	726.03271484375	-181.6255035400391	373.7849426269531	715.375	-169.1158142089844	389.5630187988281	1543.896850585938	-444.10205078125	591.6943359375	1560.145629882812	-376.5657653808594	518.0060424804688	1555.673950195312	-320.1317138671875	508.0111083984375	1541.764892578125	-531.1336059570312	535.1060180664062	915.8696899414062	-615.863525390625	316.5126037597656	893.8662109375	-305.4970397949219	458.4949340820312	897.7077026367188	-284.5900573730469	608.3737182617188	919.5258178710938	-489.4567565917969	702.30859375	492.4763793945312	-447.1169738769531	666.875	617.8284912109375	-508.6688537597656	742.4520874023438	36.53091430664062	-455.7718811035156	733.7586059570312	261.2772827148438	-451.3085021972656	785.23193359375	56.95731353759766	-249.2246856689453	720.3443603515625	33.17931365966797	-287.9398193359375	809.4317626953125	41.54575347900391	-353.3198547363281	668.6134033203125	28.68900871276855	-465.6465759277344	311.1002197265625	438.0734558105469	-441.5270690917969	349.386962890625	675.8171997070312	-325.5298767089844	108.0993423461914	86.50686645507812	-645.888427734375	283.4038696289062	325.342529296875	-496.6991577148438	285.302978515625	38.45869445800781	-707.89794921875	234.1904754638672	56.29940795898438	-741.2451782226562	201.6990661621094	37.02569198608398	-629.454345703125	66.81983184814453	123.7919311523438	-692.1236572265625	441.3071594238281	655.7081909179688	-211.4003448486328	529.1553344726562	627.0537719726562	-760.9102783203125	nan	nan	nan	
